<svg width="16" height="16" viewBox="0 0 16 16" fill="none" xmlns="http://www.w3.org/2000/svg">
<g id="parameter">
<path id="Fill 1" fill-rule="evenodd" clip-rule="evenodd" d="M15 8C15 11.866 11.866 15 8 15C4.134 15 1 11.866 1 8C1 4.134 4.134 1 8 1C11.866 1 15 4.134 15 8Z" fill="#F4AF3D" fill-opacity="0.6"/>
<g id="&#226;&#140;&#152;/alphabet/nodes/p">
<path id="&#226;&#140;&#152;/alphabet/nodes/p_2" fill-rule="evenodd" clip-rule="evenodd" d="M6.99737 7.80209C6.99737 8.83569 7.23852 9.87709 8.53537 9.87709C9.83221 9.87709 9.99997 8.46409 9.99997 7.79209C9.99997 7.10609 9.90225 5.74609 8.52437 5.74609C7.14648 5.74609 6.99737 6.7685 6.99737 7.80209ZM6.99997 9.99999C7.01197 10.111 6.99737 13 6.99737 13H6.00037V5.00009H6.99737V5.74609C6.99737 5.74609 7.55166 5.00009 8.71637 5.00009C9.88107 5.00009 11.0004 5.57818 11.0004 7.80209C11.0004 10.026 9.65451 10.6231 8.71637 10.6231C7.77823 10.6231 6.99997 9.99999 6.99997 9.99999Z" fill="#231F20" fill-opacity="0.7"/>
</g>
</g>
</svg>
