<?xml version="1.0" encoding="utf-8"?>
<!DOCTYPE svg PUBLIC "-//W3C//DTD SVG 1.1//EN" "http://www.w3.org/Graphics/SVG/1.1/DTD/svg11.dtd">
<svg version="1.1" id="图层_1" xmlns="http://www.w3.org/2000/svg" xmlns:xlink="http://www.w3.org/1999/xlink" x="0px"
     y="0px"
     width="16px" height="16px" viewBox="0 0 16 16" enable-background="new 0 0 16 16" xml:space="preserve">
<path fill="#F4AF3D" fill-opacity="0.6" d="M15,8c0,3.866-3.134,7-7,7s-7-3.134-7-7s3.134-7,7-7S15,4.134,15,8"/>
<path fill="#231F20" d="M6.067,9.303c0.302,1.02,1.019,1.99,1.99,1.99c0.668,0,1.273-0.383,1.273-1.26c0-0.842-0.542-1.256-1.322-1.575
    c-1.002-0.382-1.893-0.907-1.893-1.91c0-0.987,0.891-1.894,2.276-1.878c0.573,0,0.955,0.127,1.241,0.255
    c0.112,0.366,0.255,1.162,0.303,1.607L9.711,6.628C9.441,5.832,8.853,5.02,8.041,5.02c-0.781,0-1.179,0.541-1.179,1.178
    c0,0.779,0.78,1.162,1.417,1.417c1.114,0.429,1.894,1.002,1.894,2.038c0,1.273-1.161,1.99-2.388,1.99
    c-0.827,0-1.496-0.287-1.718-0.525c-0.112-0.254-0.191-1.227-0.239-1.736L6.067,9.303z"/>
</svg>
