<?xml version="1.0" encoding="utf-8"?>
<!-- Generator: Adobe Illustrator 16.0.0, SVG Export Plug-In . SVG Version: 6.00 Build 0)  -->
<!DOCTYPE svg PUBLIC "-//W3C//DTD SVG 1.1//EN" "http://www.w3.org/Graphics/SVG/1.1/DTD/svg11.dtd">
<svg version="1.1" id="图层_1" xmlns="http://www.w3.org/2000/svg" xmlns:xlink="http://www.w3.org/1999/xlink" x="0px" y="0px"
	 width="16px" height="16px" viewBox="0 0 16 16" enable-background="new 0 0 16 16" xml:space="preserve">
<g>
	<path fill="#F4AF3D" fill-opacity="0.6" d="M15,8c0,3.866-3.134,7-7,7s-7-3.134-7-7s3.134-7,7-7S15,4.134,15,8"/>
	<path fill="#231F20" fill-opacity="0.7" d="M7.294,11L5,5h1.2C7.389,8.139,7.989,9.739,8,9.8L9.8,5H11l-2.294,6H7.294z"/>
</g>
<path fill="#9AA7B0" d="M4.243,4.243L3.553,2.863C3.461,2.99,3.358,3.117,3.238,3.238C3.116,3.358,2.99,3.46,2.863,3.553
	L4.243,4.243z M3.429,1.135c0.317,0.317,0.059,1.087-0.573,1.72c-0.633,0.632-1.403,0.889-1.72,0.573
	c-0.316-0.317-0.06-1.087,0.574-1.72C2.342,1.076,3.112,0.819,3.429,1.135z"/>
</svg>
