<?xml version="1.0" encoding="utf-8"?>
<!-- Generator: Adobe Illustrator 16.0.0, SVG Export Plug-In . SVG Version: 6.00 Build 0)  -->
<!DOCTYPE svg PUBLIC "-//W3C//DTD SVG 1.1//EN" "http://www.w3.org/Graphics/SVG/1.1/DTD/svg11.dtd">
<svg version="1.1" id="图层_1" xmlns="http://www.w3.org/2000/svg" xmlns:xlink="http://www.w3.org/1999/xlink" x="0px" y="0px"
	 width="16px" height="16px" viewBox="0 0 16 16" enable-background="new 0 0 16 16" xml:space="preserve">
<path fill="#F4AF3D" fill-opacity="0.6" d="M15,8c0,3.866-3.134,7-7,7s-7-3.134-7-7s3.134-7,7-7S15,4.134,15,8"/>
<g>
	<path fill="#231F20" d="M10.924,8.466c0,0.332-0.025,0.648-0.075,0.952c-0.052,0.304-0.135,0.586-0.246,0.847c-0.113,0.261-0.26,0.499-0.439,0.713
		c-0.181,0.213-0.401,0.396-0.662,0.547c-0.262,0.151-0.564,0.269-0.911,0.353C8.245,11.96,7.853,12,7.412,12H5.93V5.084h1.784
		c1.078,0,1.885,0.279,2.415,0.834C10.659,6.475,10.924,7.323,10.924,8.466z M9.935,8.533c0-0.488-0.045-0.904-0.137-1.242
		S9.567,6.68,9.38,6.471C9.193,6.263,8.958,6.113,8.677,6.02C8.395,5.926,8.062,5.878,7.682,5.878H6.871v5.306h0.705
		C9.148,11.185,9.935,10.303,9.935,8.533z"/>
</g>
</svg>
